<?xml version="1.0" encoding="utf-8"?>
<!-- Generator: Adobe Illustrator 27.5.0, SVG Export Plug-In . SVG Version: 6.00 Build 0)  -->
<svg version="1.1" xmlns="http://www.w3.org/2000/svg" xmlns:xlink="http://www.w3.org/1999/xlink" x="0px" y="0px"
	 viewBox="0 0 1200 1200" style="enable-background:new 0 0 1200 1200;" xml:space="preserve">
<g id="background">
	<rect style="fill:#93B1BF;" width="1200" height="1200"/>
</g>
<g id="graphic_elements">
	<g>
		<defs>
			<circle id="SVGID_1_" cx="600" cy="600" r="397.956"/>
		</defs>
		<clipPath id="SVGID_00000152250239489626254480000003146150212453439933_">
			<use xlink:href="#SVGID_1_"  style="overflow:visible;"/>
		</clipPath>
		
			<circle style="clip-path:url(#SVGID_00000152250239489626254480000003146150212453439933_);fill:#CCE2ED;" cx="600" cy="600" r="466.461"/>
		<path style="clip-path:url(#SVGID_00000152250239489626254480000003146150212453439933_);fill:#FFFFFF;" d="M681.904,1054.295
			c-44.263,4.949-89.674-2.265-130.539-19.85c-17.839-7.135-33.328-19.316-49.916-28.787c-6.397-3.652-13.564-6.185-19.828-9.891
			c-7.432-4.397-13.293-12.031-19.335-18.111c-3.018-3.037-6.165-6.299-7.14-10.468c-0.537-2.295-0.366-4.69-0.191-7.04
			c2.609-35.093,3.153-70.044,6.422-105.14c1.565-16.804,4.132-33.157,6.89-49.773c2.352-14.172,1.422-28.887,3.159-43.215
			c2.01-16.59,7.96-37.944,19.01-50.807c11.325-13.182,28.392-18.566,44.015-24.756c7.247-2.871,14.098-8.326,21.354-10.562
			c10.552-3.252,21.371-1.481,31.847-6.541c24.238-11.706,22.163-34.422,16.78-56.375c-0.402-1.638-0.842-3.351-1.983-4.594
			c-0.875-0.954-2.076-1.531-3.246-2.085c-7.232-3.429-13.793-7.459-20.83-11.128c-19.28-10.052-37.194-28.371-42.646-49.891
			c-2.368-9.349-5.874-18.955-7.741-28.3c-1.755-8.782,0.073-18.137,0.178-26.996c0.241-20.365,0.83-40.726,1.769-61.07
			c0.526-11.4-0.516-21.339,8.913-29.385c7.168-6.115,17.112-7.467,26.203-7.706c26.466-0.696,52.976,0.299,79.315,2.977
			c22.171,2.254,44.837,5.91,64.061,17.183c19.224,11.273,34.479,31.717,33.767,53.991c-0.213,6.669-1.421,15.715-4.86,21.58
			c-2.72,4.638-7.164,6.139-7.001,12.442c0.086,3.326,1.079,6.568,1.321,9.886c0.389,5.325-1.243,10.772-4.494,15.006
			c-4.247,5.531-9.32,9.922-13.701,15.241c-1.409,1.71-2.856,3.494-3.414,5.638c-0.335,1.283-0.33,2.627-0.324,3.953
			c0.044,9.229-0.508,17.638-1.721,26.759c-2.179,16.384-0.274,32.704-1.739,48.944c-1.07,11.864-0.374,25.699,7.624,35.542
			c5.905,7.267,16.604,9.537,25.357,10.813c12.749,1.859,25.497,3.717,38.246,5.576c4.169,0.608,8.734,1.018,12.616,2.791
			c8.395,3.834,16.81,7.85,24.057,13.564c10.733,8.463,16.138,20.255,19.599,33.129c12.762,47.471,25.525,94.941,38.287,142.411
			c4.21,15.658,8.449,32.001,5.254,47.897c-2.492,12.399-9.336,23.471-16.806,33.676
			C818.672,1007.953,752.268,1046.427,681.904,1054.295z"/>
		<g style="clip-path:url(#SVGID_00000152250239489626254480000003146150212453439933_);">
			<path style="fill:#5B6F78;" d="M753.558,822.081c5.788-11.46,10.049-23.669,12.554-36.264c1.224-6.156,2.387-12.609,2.338-18.905
				c-0.048-6.196-2.084-11.953-6.343-16.495c-7.915-8.44-20.729-11.939-31.703-8.043c-10.321,3.665-16.945,12.792-21.188,22.492
				c-4.788,10.944-7.005,22.703-10.685,34.016c-0.875,2.689,3.357,3.841,4.227,1.165c3.062-9.413,5.061-19.145,8.456-28.455
				c3.177-8.712,7.93-18.16,16.209-23.032c9.181-5.403,20.942-4.109,29.102,2.632c4.075,3.366,6.866,7.766,7.407,13.106
				c0.584,5.766-0.499,11.803-1.504,17.467c-2.348,13.237-6.594,26.101-12.655,38.102
				C748.504,822.381,752.284,824.603,753.558,822.081L753.558,822.081z"/>
		</g>
		<g style="clip-path:url(#SVGID_00000152250239489626254480000003146150212453439933_);">
			<path style="fill:#5B6F78;" d="M712.957,658.315c5.889-0.883,12.262,1.007,17.414,3.773c2.707,1.453,5.229,3.232,7.351,5.464
				c2.285,2.404,3.956,5.423,5.526,8.322c6.939,12.812,9.679,27.518,8.961,42.002c-0.407,8.203-1.949,16.303-4.409,24.135
				c-0.848,2.698,3.383,3.852,4.227,1.165c4.678-14.891,6.023-30.868,3.179-46.254c-1.413-7.642-3.932-15.083-7.5-21.99
				c-1.706-3.303-3.597-6.662-6.009-9.507c-2.148-2.534-4.858-4.628-7.703-6.324c-6.571-3.918-14.556-6.16-22.203-5.014
				c-1.172,0.176-1.818,1.653-1.531,2.696C710.605,658.038,711.781,658.491,712.957,658.315L712.957,658.315z"/>
		</g>
		<path style="clip-path:url(#SVGID_00000152250239489626254480000003146150212453439933_);fill:#93B1BF;" d="M622.499,715.993
			c-1.025,17.4-0.454,52.248-0.836,57.109c-1.718,21.866-7.152,45.434-5.017,67.29c1.907,19.516-2.793,40.611-3.184,60.462
			c-0.655,33.221-2.911,66.817-2.693,99.867c0.038,5.691-0.54,16.835,5.469,20.008c4.691,2.477,15.596-0.759,20.476-1.304
			c18.512-2.066,36.9-5.242,55.032-9.505c1.869-0.44,3.834-0.943,5.203-2.29c1.832-1.802,2.121-4.609,2.295-7.173
			c2.84-41.921-2.231-82.864-6.176-124.591c-3.645-38.55-4.295-77.288-6.147-115.945c-0.463-9.664-0.995-19.326-1.672-28.977
			c-0.513-7.309-0.181-14.668-0.9-21.964c-0.051-0.515-0.14-1.09-0.555-1.398c-0.406-0.3-0.966-0.23-1.464-0.146
			c-9.152,1.552-17.928,2.257-27.264,1.437c-10.281-0.904-20.561-1.808-30.842-2.712
			C623.392,706.087,622.851,710.008,622.499,715.993z"/>
		<g style="clip-path:url(#SVGID_00000152250239489626254480000003146150212453439933_);">
			<path style="fill:#5B6F78;" d="M585.797,813.618c-3.043,6.458-10.965,8.902-17.491,7.188c-3.273-0.86-6.02-2.704-7.585-5.723
				c-1.478-2.852-1.586-7.561-1.097-10.544c0.128-0.784,0.296-1.56,0.523-2.322c0.096-0.323,0.201-0.643,0.318-0.959
				c0.068-0.184,0.137-0.367,0.213-0.547c-0.192,0.455,0.133-0.265,0.171-0.342c0.295-0.595,0.641-1.154,1.013-1.703
				c0.346-0.511-0.115,0.081,0.29-0.372c0.243-0.271,0.483-0.541,0.745-0.795c0.217-0.21,0.445-0.406,0.674-0.603
				c0.419-0.36-0.38,0.261,0.07-0.056c0.088-0.062,0.174-0.128,0.264-0.187c0.543-0.354,1.095-0.663,1.675-0.951
				c0.099-0.049,0.605-0.242,0.066-0.033c0.15-0.058,0.299-0.12,0.451-0.17c0.256-0.084,0.509-0.172,0.768-0.245
				c0.312-0.089,0.628-0.167,0.945-0.233c0.185-0.039,1.158-0.187,0.548-0.11c1.285-0.16,2.566-0.139,3.853-0.02
				c0.6,0.056-0.173-0.05,0.439,0.06c0.313,0.056,0.626,0.11,0.937,0.177c0.656,0.14,1.305,0.314,1.945,0.518
				c0.336,0.107,0.67,0.223,1,0.347c0.105,0.039,0.951,0.388,0.462,0.176c0.652,0.282,1.291,0.595,1.912,0.94
				c0.569,0.315,1.124,0.657,1.662,1.023c0.244,0.166,0.483,0.339,0.721,0.513c0.478,0.351-0.344-0.284,0.115,0.089
				c0.182,0.148,0.364,0.296,0.542,0.45c0.552,0.475,1.077,0.981,1.57,1.516c0.254,0.276,0.496,0.562,0.735,0.852
				c0.369,0.448-0.262-0.367,0.079,0.101c0.101,0.139,0.202,0.277,0.3,0.418c0.421,0.607,0.801,1.243,1.13,1.905
				c0.076,0.152,0.146,0.306,0.219,0.46c0.243,0.517-0.16-0.432,0.044,0.101c0.142,0.37,0.276,0.742,0.389,1.122
				c0.097,0.326,0.182,0.657,0.253,0.99c0.036,0.169,0.183,1.185,0.119,0.602c0.084,0.758,0.111,1.519,0.065,2.28
				c-0.011,0.18-0.028,0.36-0.044,0.54c-0.045,0.522,0.063-0.335-0.016,0.144c-0.072,0.434-0.158,0.864-0.267,1.29
				c-0.097,0.378-0.21,0.753-0.336,1.122c-0.065,0.19-0.135,0.378-0.206,0.566c-0.096,0.237-0.1,0.253-0.012,0.046
				C585.912,813.364,585.855,813.492,585.797,813.618c-0.488,1.078-0.31,2.358,0.786,2.999c0.94,0.55,2.509,0.297,2.999-0.786
				c1.466-3.239,2.05-6.669,1.345-10.183c-0.618-3.08-2.297-5.903-4.429-8.177c-4.186-4.464-10.591-7.271-16.735-7.057
				c-6.767,0.236-12.185,4.477-13.958,11.038c-1.113,4.116-1.206,9.175,0.065,13.26c1.286,4.131,4.341,7.489,8.287,9.244
				c7.915,3.521,18.332,1.674,23.732-5.368c0.662-0.864,1.229-1.771,1.693-2.757c0.504-1.07,0.298-2.364-0.786-2.999
				C587.844,812.275,586.304,812.542,585.797,813.618z"/>
		</g>
		<g style="clip-path:url(#SVGID_00000152250239489626254480000003146150212453439933_);">
			<path style="fill:#5B6F78;" d="M565.182,794.119c-2.664-22.596-4.101-45.333-4.281-68.085
				c-0.081-10.236-0.464-20.826,1.757-30.883c2.028-9.182,6.857-17.028,13.684-23.438c7.171-6.733,16.676-12.04,26.771-11.597
				c2.821,0.124,2.815-4.26,0-4.384c-9.636-0.423-18.767,3.889-26.195,9.722c-7.469,5.866-13.654,13.715-16.838,22.712
				c-3.546,10.021-3.554,20.938-3.58,31.438c-0.029,11.705,0.273,23.411,0.905,35.1c0.712,13.17,1.849,26.316,3.393,39.415
				c0.139,1.175,0.908,2.192,2.192,2.192C564.068,796.311,565.322,795.302,565.182,794.119L565.182,794.119z"/>
		</g>
		<g style="clip-path:url(#SVGID_00000152250239489626254480000003146150212453439933_);">
			<path style="fill:#5B6F78;" d="M505.994,1085.221c-9.43,0.2-18.865-0.121-28.255-1.012c-4.61-0.438-9.285-0.879-13.838-1.741
				c-1.605-0.304-3.416-0.693-4.327-2.195c-1.045-1.723-0.852-4.07-0.868-6.001c-0.16-18.672-0.637-37.339-0.99-56.008
				c-0.351-18.608-0.569-37.223-0.176-55.832c0.395-18.732,1.661-37.389,3.308-56.049c3.33-37.732,7.78-75.366,10.292-113.168
				c2.093-31.497,7.185-67.362,32.115-89.577c11.322-10.089,25.378-16.291,39.692-20.838c8.358-2.656,16.84-5.196,25.334-7.378
				c6.729-1.728,13.653-2.674,20.274-4.827c2.97-0.966,5.919-2.157,8.503-3.934c2.31-1.589,0.12-5.389-2.213-3.785
				c-5.687,3.912-13.014,5.117-19.639,6.514c-7.971,1.681-15.742,3.971-23.569,6.224c-15.558,4.479-31.103,9.739-44.383,19.263
				c-12.808,9.186-21.888,21.56-28.048,35.993c-6.678,15.645-9.905,32.465-11.493,49.336c-0.879,9.336-1.317,18.716-2.053,28.065
				c-0.769,9.764-1.64,19.519-2.56,29.27c-1.839,19.483-3.876,38.947-5.69,58.433c-1.778,19.103-3.388,38.219-4.012,57.4
				c-0.622,19.14-0.513,38.295-0.197,57.44c0.317,19.245,0.848,38.486,1.066,57.732c0.046,4.025-0.564,8.731,0.894,12.57
				c1.365,3.595,4.599,5.081,8.182,5.686c9.396,1.587,18.994,2.372,28.51,2.714c4.713,0.17,9.428,0.191,14.143,0.091
				C508.811,1089.545,508.821,1085.161,505.994,1085.221L505.994,1085.221z"/>
		</g>
		<g style="clip-path:url(#SVGID_00000152250239489626254480000003146150212453439933_);">
			<path style="fill:#5B6F78;" d="M709.179,657.974c1.675,5.084,1.162,10.614-1.775,15.167c-3.2,4.96-8.826,6.789-13.461,10.034
				c-7.892,5.524-11.884,13.481-12.548,22.978c-0.84,12.015,1.221,24.168,1.853,36.158c0.674,12.782,1.405,25.561,2.174,38.338
				c3.158,52.493,6.957,104.944,10.051,157.441c3.076,52.188,5.224,104.355,5.184,156.642c-0.04,52.375-1.438,104.737-1.702,157.11
				c-0.264,52.458,1.279,104.886,3.236,157.303c0.249,6.665,0.508,13.329,0.776,19.993c0.113,2.811,4.497,2.826,4.384,0
				c-2.119-52.683-4.004-105.418-4.054-158.149c-0.05-52.631,1.352-105.249,1.677-157.878c0.325-52.557-1.194-104.979-4.111-157.452
				c-2.918-52.495-6.692-104.936-9.977-157.408c-1.597-25.523-2.797-51.071-4.793-76.564c-0.882-11.265-1.812-23.772,7.055-32.246
				c4.006-3.828,9.303-5.655,13.582-9.096c3.334-2.681,5.727-6.399,6.938-10.498c1.266-4.285,1.13-8.81-0.262-13.036
				C712.528,654.141,708.293,655.283,709.179,657.974L709.179,657.974z"/>
		</g>
		<g style="clip-path:url(#SVGID_00000152250239489626254480000003146150212453439933_);">
			<path style="fill:#5B6F78;" d="M525.148,389.343c1.772,27.513,0.384,55.055,0.151,82.59c-0.206,24.421-1.037,50.828,7.72,74.029
				c14.439,38.257,52.685,67.547,94.767,61.966c24.005-3.184,41.368-18.694,53.021-39.215c1.267-2.23-2.17-4.238-3.436-2.009
				c-10.52,18.524-25.732,33.046-47.271,36.869c-19.231,3.413-39.667-1.544-56.026-11.945
				c-17.402-11.065-30.816-28.88-37.759-48.195c-7.87-21.892-7.19-46.577-7.05-69.534c0.173-28.191,1.678-56.387-0.137-84.556
				C528.964,386.8,524.983,386.781,525.148,389.343L525.148,389.343z"/>
		</g>
		<path style="clip-path:url(#SVGID_00000152250239489626254480000003146150212453439933_);fill:#5B6F78;" d="M761.59,407.701
			c-1.87-22.924-10.334-48.46-31.466-57.541c-15.28-6.566-31.112,0.019-46.32-5.748c-13.689-5.19-25.003-14.78-38.322-20.693
			c-20.281-9.004-43.026-13.26-65.111-9.964c-14.609,2.181-29.139,5.835-43.904,5.432c-6.176-0.169-12.596-1.012-18.346,1.243
			c-10.833,4.249-16.55,17.755-16.592,28.567c-0.049,12.614-0.412,26.653,1.358,39.254c1.764,12.56,6.777,25.085,16.209,33.564
			c5.135,4.616,11.363,7.859,17.772,10.428c22.501,9.017,42.251,3.259,65.023,0.653c28.943-3.313,58.088-27.535,68.74,14.936
			c1.918,7.646,5.707,14.126,8.374,21.306c2.956,7.957,2.582,17.842,1.984,26.279c-0.349,4.926,1.502,10.278,7.643,8.21
			c3.024-1.018,4.899-3.993,6.311-6.855c4.449-9.017,13.913-17.664,24.863-14.463c11.42,3.339,14.288,22.067,10.616,31.656
			c-1.131,2.954-4.442,6.526-4.169,9.611c3.842-1.756,7.253-5.303,9.992-8.49c6.155-7.163,10.6-16.243,13.931-25.165
			C759.931,463.791,763.857,435.502,761.59,407.701z"/>
		<g style="clip-path:url(#SVGID_00000152250239489626254480000003146150212453439933_);">
			<path style="fill:#5B6F78;" d="M695.367,496.556c4.459-6.144,14.061-15.377,22.608-13.488c9.554,2.112,11.4,15.943,10.896,23.862
				c-1.149,18.038-14.4,32.539-31.828,36.379c-2.754,0.607-1.588,4.834,1.165,4.227c22.272-4.907,37.756-26.05,34.726-48.894
				c-1.12-8.443-5.864-19.168-15.566-20.076c-10.222-0.957-20.276,8.183-25.787,15.777
				C689.923,496.63,693.724,498.82,695.367,496.556L695.367,496.556z"/>
		</g>
		<g style="clip-path:url(#SVGID_00000152250239489626254480000003146150212453439933_);">
			<path style="fill:#5B6F78;" d="M602.101,607.18c5.526,17.742,10.415,42.368-6.487,55.579c-2.221,1.736,0.901,4.818,3.1,3.1
				c18.175-14.206,13.589-40.661,7.614-59.844C605.492,603.33,601.259,604.476,602.101,607.18L602.101,607.18z"/>
		</g>
		<g style="clip-path:url(#SVGID_00000152250239489626254480000003146150212453439933_);">
			<path style="fill:#5B6F78;" d="M707.968,540.624c-2.066,18.047-1.98,36.242-3.464,54.334c-0.736,8.973-1.622,17.941-1.881,26.944
				c-0.216,7.528-0.308,15.315,1.291,22.714c1.41,6.522,4.588,12.721,9.695,17.112c4.631,3.982,10.289,6.538,16.041,8.453
				c12.373,4.119,25.631,5.774,38.391,8.318c14.977,2.986,30.683,6.408,43.394,15.35c9.509,6.69,15.442,17.518,19.581,28.118
				c4.515,11.56,7.337,23.706,10.049,35.79c2.992,13.329,6.519,26.459,9.985,39.671c4.56,17.385,8.811,34.851,12.75,52.387
				c3.973,17.686,8.067,35.479,10.785,53.409c1.354,8.929,2.095,17.997,1.506,27.025c-0.582,8.911-2.478,17.676-4.834,26.272
				c-4.68,17.075-10.528,33.831-15.443,50.843c-2.069,7.162-4.441,14.361-5.87,21.685c-1.028,5.271-1.705,10.606-2.652,15.891
				c-0.982,5.478-2.141,11.019-4.231,16.196c-1.757,4.353-4.896,10.214-9.974,11.207c-4.137,0.809-8.996,0.192-13.171-0.031
				c-4.157-0.222-8.306-0.602-12.436-1.125c-8.705-1.102-17.323-2.865-25.836-4.973c-10.213-2.53-25.046-5.042-25.946-18.088
				c-0.386-5.591,1.225-11.179,3.073-16.395c3.01-8.493,6.286-16.901,9.432-25.344c6.371-17.097,12.743-34.193,19.115-51.29
				c3.072-8.244,7.049-16.655,8.399-25.403c1.317-8.535-1.261-16.651-3.434-24.822c-4.674-17.575-9.348-35.15-14.022-52.725
				c-2.314-8.702-4.629-17.404-6.943-26.107c-0.724-2.724-4.954-1.568-4.227,1.165c4.765,17.916,9.53,35.833,14.295,53.749
				c2.405,9.044,4.81,18.087,7.215,27.13c1.222,4.594,2.683,9.243,3.073,14.002c0.372,4.537-0.473,8.936-1.812,13.258
				c-2.73,8.813-6.333,17.412-9.555,26.055c-3.217,8.631-6.433,17.263-9.65,25.894c-3.279,8.797-6.557,17.595-9.836,26.392
				c-2.832,7.6-6.177,15.186-8.183,23.059c-2.475,9.717-1.836,19.982,6.941,26.227c5.646,4.017,12.848,5.437,19.437,7.102
				c8.541,2.159,17.177,3.957,25.908,5.158c8.453,1.162,17.028,1.869,25.567,1.674c6.127-0.14,10.381-3.225,13.635-8.255
				c6.052-9.354,7.253-21.407,8.964-32.151c2.382-14.948,7.3-29.513,11.691-43.968c5.182-17.058,11.604-33.997,14.458-51.655
				c2.928-18.122,0.408-35.968-3.103-53.812c-3.538-17.978-7.428-35.888-11.629-53.722c-4.2-17.834-8.724-35.592-13.568-53.262
				c-3.24-11.817-5.562-23.848-8.503-35.738c-2.977-12.036-6.538-24.159-12.48-35.106c-6.123-11.283-14.794-19.497-26.447-24.924
				c-14.202-6.615-29.821-9.149-45.068-12.18c-12.457-2.476-25.928-3.875-37.127-10.321c-6.083-3.501-10.438-8.789-12.457-15.557
				c-2.226-7.464-2.055-15.603-1.876-23.316c0.213-9.179,1.11-18.321,1.865-27.465c0.754-9.126,1.134-18.271,1.546-27.417
				c0.412-9.162,0.917-18.319,1.96-27.434C712.672,537.826,708.286,537.849,707.968,540.624L707.968,540.624z"/>
		</g>
		<g style="clip-path:url(#SVGID_00000152250239489626254480000003146150212453439933_);">
			<path style="fill:#5B6F78;" d="M612.011,1060.854c22.648,0.352,45.309-0.232,67.907-1.773c6.433-0.439,12.86-0.956,19.281-1.546
				c1.179-0.108,2.192-0.93,2.192-2.192c0-1.101-1.006-2.301-2.192-2.192c-22.556,2.073-45.195,3.213-67.846,3.394
				c-6.448,0.052-12.896,0.025-19.343-0.076C609.189,1056.426,609.188,1060.81,612.011,1060.854L612.011,1060.854z"/>
		</g>
		<g style="clip-path:url(#SVGID_00000152250239489626254480000003146150212453439933_);">
			<path style="fill:#5B6F78;" d="M520.821,790.034c-0.827,21.131-1.743,42.259-2.634,63.388
				c-1.479,35.048-2.963,70.095-4.433,105.143c-1.677,39.993-3.339,79.986-4.96,119.981c-1.462,36.078-2.9,72.157-4.227,108.241
				c-0.842,22.898-1.76,45.804-2.186,68.715c-0.535,28.761-0.571,57.541-0.563,86.306c0.005,16.71-1.47,33.289-2.25,49.966
				c-0.369,7.881-1.196,16.505-0.018,24.343c0.964,6.413,9.192,5.297,14.063,5.641c17.104,1.207,34.288,1.283,51.403,0.23
				c8.433-0.519,16.849-1.313,25.231-2.377c2.735-0.348,6.254-0.286,8.764-1.484c2.778-1.325,2.971-3.883,3.196-6.673
				c2.761-34.226,3.895-68.633,4.808-102.95c1.832-68.925,1.864-137.882,3.637-206.81c1.786-69.426,3.887-138.844,6.3-208.251
				c1.203-34.586,2.173-69.203,3.963-103.765c0.889-17.166,2-34.322,2.627-51.501c0.305-8.35,0.53-16.711,0.485-25.067
				c-0.035-6.522-0.573-12.938-3.255-18.964c-2.675-6.009-7.287-10.038-11.851-14.586c-2.492-2.482-5.375-5.365-6.05-8.955
				c-0.878-4.666,1.726-9.5,3.656-13.56c1.205-2.535-2.574-4.762-3.785-2.213c-2.856,6.009-6.096,12.808-3.28,19.437
				c2.452,5.772,8.002,9.644,12.183,14.074c10.987,11.642,8.133,29.964,7.69,44.611c-1.022,33.752-3.367,67.467-4.627,101.215
				c-2.554,68.388-4.804,136.786-6.749,205.194c-1.943,68.333-3.112,136.651-4.082,205.003c-0.478,33.687-1.124,67.374-2.445,101.04
				c-0.668,17.032-1.508,34.057-2.59,51.068c-0.254,3.996-0.521,7.991-0.802,11.985c-0.126,1.782,0.304,4.912-1.578,5.898
				c-2.031,1.064-5.418,0.774-7.691,1.054c-8.386,1.032-16.805,1.793-25.24,2.281c-16.87,0.976-33.804,0.848-50.658-0.371
				c-1.927-0.139-4.052-0.082-5.945-0.477c-2.939-0.612-3.092-1.815-3.193-4.563c-0.152-4.157-0.155-8.32-0.064-12.478
				c0.181-8.274,0.75-16.532,1.3-24.788c2.234-33.528,1.225-67.257,1.568-100.847c0.241-23.621,0.98-47.218,1.816-70.825
				c1.196-33.772,2.526-67.54,3.878-101.306c1.581-39.47,3.21-78.939,4.858-118.407c1.518-36.37,3.054-72.74,4.591-109.11
				c1.049-24.826,2.11-49.652,3.124-74.479c0.136-3.336,0.271-6.672,0.402-10.008C525.315,787.213,520.931,787.218,520.821,790.034
				L520.821,790.034z"/>
		</g>
		<g style="clip-path:url(#SVGID_00000152250239489626254480000003146150212453439933_);">
			<path style="fill:#5B6F78;" d="M837.79,1071.35c0.018,30.945,2.268,61.841,2.122,92.789c-0.073,15.374,0.431,30.74,0.786,46.108
				c0.354,15.354,0.235,30.699,0.285,46.055c0.1,30.941,0.791,61.876,0.935,92.817c0.072,15.424,0.008,30.851-0.337,46.272
				c-0.087,3.872-0.191,7.745-0.316,11.616c-0.03,0.938-0.057,1.876-0.094,2.813c-0.029,0.717,0.067,0.945-0.358,1.163
				c-0.578,0.296-1.607,0.175-2.255,0.242c-1.172,0.12-2.344,0.241-3.517,0.363c-7.626,0.792-15.249,1.62-22.869,2.472
				c-30.89,3.455-61.733,7.316-92.607,10.902c-3.753,0.436-7.507,0.868-11.261,1.295c-2.875,0.327-2.909,4.88,0,4.549
				c31.352-3.565,62.662-7.494,94.012-11.081c7.857-0.899,15.717-1.776,23.58-2.621c3.985-0.428,7.971-0.847,11.959-1.257
				c3.007-0.309,6.694-0.212,7.628-3.783c0.419-1.6,0.278-3.417,0.331-5.056c0.064-1.994,0.123-3.987,0.177-5.981
				c0.108-3.992,0.195-7.985,0.265-11.978c0.136-7.767,0.206-15.534,0.229-23.302c0.091-31.528-0.599-63.05-0.864-94.576
				c-0.132-15.656,0.075-31.316-0.117-46.971c-0.191-15.563-0.78-31.118-0.981-46.681c-0.203-15.798-0.097-31.578-0.607-47.374
				c-0.507-15.7-1.214-31.395-1.474-47.101c-0.065-3.897-0.1-7.795-0.102-11.692C842.337,1068.423,837.788,1068.418,837.79,1071.35
				L837.79,1071.35z"/>
		</g>
		<g style="clip-path:url(#SVGID_00000152250239489626254480000003146150212453439933_);">
			<path style="fill:#5B6F78;" d="M762.303,1065.166c-1.945,5.951-3.89,11.901-5.835,17.852c-0.368,1.125,0.428,2.393,1.531,2.696
				c1.189,0.327,2.327-0.402,2.696-1.531c1.945-5.951,3.89-11.901,5.835-17.852c0.368-1.125-0.428-2.393-1.531-2.696
				C763.81,1063.309,762.672,1064.037,762.303,1065.166L762.303,1065.166z"/>
		</g>
		<g style="clip-path:url(#SVGID_00000152250239489626254480000003146150212453439933_);">
			<path style="fill:#5B6F78;" d="M814.615,1075.894c-1.198,4.891-2.862,9.662-4.991,14.166c-0.506,1.069-0.297,2.365,0.786,2.999
				c0.953,0.558,2.491,0.288,2.999-0.786c2.308-4.881,4.148-9.968,5.433-15.213c0.272-1.112-0.354-2.428-1.531-2.696
				C816.181,1074.105,814.907,1074.703,814.615,1075.894L814.615,1075.894z"/>
		</g>
		<path style="clip-path:url(#SVGID_00000152250239489626254480000003146150212453439933_);fill:#93B1BF;" d="M587.596,904.027
			c9.93-4.892,12.258-18.793,12.393-34.359c0.099-11.465-0.493-22.638-0.295-34.104c0.025-1.418,0.036-2.906-0.497-4.136
			c-0.509-1.175-1.453-1.952-2.438-2.478c-2.366-1.265-5.044-1.306-7.646-1.307c-13.952-0.002-27.919,0.633-41.866,1.902
			c-2.039,0.186-4.18,0.427-5.91,1.849c-6.884,5.66-0.71,42.843-0.484,52.235c0.107,4.469,0.261,9.057,1.686,13.108
			c6.61,18.788,24.425,9.302,36.565,9.153C582.419,905.85,585.224,905.195,587.596,904.027z"/>
		<polygon style="clip-path:url(#SVGID_00000152250239489626254480000003146150212453439933_);fill:#93B1BF;" points="
			439.842,494.873 377.982,494.873 377.982,433.014 341.611,433.014 341.611,494.873 279.752,494.873 279.752,531.246 
			341.611,531.246 341.611,593.105 377.982,593.105 377.982,531.246 439.842,531.246 		"/>
		<polygon style="clip-path:url(#SVGID_00000152250239489626254480000003146150212453439933_);fill:#93B1BF;" points="
			878.487,587.827 849.495,587.827 849.495,558.836 832.449,558.836 832.449,587.827 803.458,587.827 803.458,604.874 
			832.449,604.874 832.449,633.865 849.495,633.865 849.495,604.874 878.487,604.874 		"/>
		<polygon style="clip-path:url(#SVGID_00000152250239489626254480000003146150212453439933_);fill:#93B1BF;" points="
			849.67,366.836 834.031,366.836 834.031,351.197 824.836,351.197 824.836,366.836 809.196,366.836 809.196,376.032 
			824.836,376.032 824.836,391.671 834.031,391.671 834.031,376.032 849.67,376.032 		"/>
		<g style="clip-path:url(#SVGID_00000152250239489626254480000003146150212453439933_);">
			<path style="fill:#5B6F78;" d="M620.443,705.37c15.341,5.653,32.043,7.678,48.291,5.844c4.701-0.53,9.36-1.353,13.952-2.493
				c2.737-0.68,1.577-4.908-1.165-4.227c-15.319,3.804-31.487,3.988-46.888,0.512c-4.423-0.998-8.771-2.296-13.025-3.863
				c-1.111-0.409-2.401,0.458-2.696,1.531C618.576,703.898,619.328,704.959,620.443,705.37L620.443,705.37z"/>
		</g>
	</g>
</g>
</svg>
