<?xml version="1.0" encoding="utf-8"?>
<!-- Generator: Adobe Illustrator 27.5.0, SVG Export Plug-In . SVG Version: 6.00 Build 0)  -->
<svg version="1.1" xmlns="http://www.w3.org/2000/svg" xmlns:xlink="http://www.w3.org/1999/xlink" x="0px" y="0px"
	 viewBox="0 0 500 500" style="enable-background:new 0 0 500 500;" xml:space="preserve">
<g id="BACKGROUND">
	<path style="opacity:0.05;fill:#4B74BC;" d="M72.269,306.268c0,0-10-37,9-57s68-34,86,17s63-4,70-32s43.057-78.409,102-81
		c91-4,130,100,60,176S128.269,480.268,72.269,306.268z"/>
</g>
<g id="OBJECTS">
	<g>
		<g>
			<path style="fill:#CDDFF7;" d="M385.328,231.991l-19.558-0.004c-1.308,0-2.368-1.061-2.368-2.369l0.004-18.259l24.294,0.005
				l-0.004,18.259C387.696,230.931,386.636,231.991,385.328,231.991z"/>
		</g>
		<g>
			<path style="fill:#CDDFF7;" d="M375.475,223.4c-6.656-0.002-12.07-5.548-12.068-12.364c0.001-6.816,5.418-12.36,12.074-12.359
				c6.656,0.002,12.069,5.548,12.068,12.364C387.546,217.857,382.131,223.401,375.475,223.4z M375.479,203.921
				c-3.764-0.001-6.828,3.191-6.829,7.115c-0.001,3.924,3.061,7.117,6.826,7.118c3.764,0.001,6.827-3.191,6.828-7.115
				C382.305,207.115,379.243,203.922,375.479,203.921z"/>
		</g>
		<rect x="363.253" y="211.247" style="opacity:0.15;fill:#6C99EA;" width="24.447" height="3.476"/>
		<path style="fill:#4B74BC;" d="M377.851,223.891l-0.538-0.991c0.753-0.621,1.205-1.634,1.043-2.761
			c-0.174-1.21-1.094-2.218-2.229-2.429c-1.743-0.323-3.257,1.092-3.258,2.883c0,0.941,0.425,1.77,1.075,2.306l-0.539,0.99
			l-1.345,2.471c-0.391,0.718,0.097,1.616,0.879,1.617l2.689,0.001l2.689,0.001c0.781,0,1.27-0.898,0.879-1.616L377.851,223.891z"/>
	</g>
	<g>
		<g>
			<path style="fill:#FFDAD7;" d="M228.311,303.344c0,0-3.99,7.867-5.605,8.617c-1.615,0.75-9.119,0.339-9.67,1.622
				c-0.552,1.284,0.732,1.835,4.217,2.573c3.485,0.738,8.62,2.945,10.917-0.63c2.297-3.575,6.377-9.882,6.377-9.882L228.311,303.344
				z"/>
			<g>
				<path style="fill:#4B74BC;" d="M227.662,301.226c2.484-5.52,5.033-10.906,7.764-16.319c1.366-2.702,2.777-5.397,4.271-8.098
					c1.508-2.703,3.068-5.398,4.934-8.172c0.956-1.396,1.95-2.798,3.319-4.347l0.523-0.581l0.468-0.489l0.943-0.978
					c0.631-0.673,1.271-1.256,1.914-1.857c2.577-2.388,5.229-4.486,7.922-6.428c2.696-1.926,5.435-3.701,8.222-5.373
					c1.393-0.838,2.803-1.641,4.23-2.432l2.173-1.163l1.12-0.575l0.583-0.29l0.673-0.317l3.131-1.474
					c6.526-3.073,14.308-0.273,17.38,6.253c3.073,6.526,0.273,14.308-6.253,17.38c-1.854,0.873-3.872,1.268-5.793,1.242
					c-0.057-0.001-0.22,0.039-0.362,0.071l-0.448,0.107l-0.937,0.239l-1.915,0.526c-1.282,0.373-2.57,0.764-3.843,1.185
					c-2.55,0.837-5.059,1.762-7.478,2.774c-2.406,1.019-4.716,2.133-6.818,3.335c-0.522,0.301-1.067,0.599-1.53,0.916l-0.731,0.468
					l-0.369,0.234l-0.272,0.187c-0.744,0.509-1.683,1.341-2.6,2.221c-1.86,1.8-3.751,3.894-5.605,6.035
					c-1.856,2.154-3.689,4.385-5.499,6.652c-3.612,4.532-7.172,9.24-10.583,13.937l-0.039,0.054
					c-1.602,2.206-4.689,2.695-6.895,1.093C227.337,305.847,226.721,303.314,227.662,301.226z"/>
			</g>
			<path style="fill:#6C99EA;" d="M228.874,298.567c-0.405,0.885-0.811,1.768-1.212,2.66c-0.941,2.088-0.325,4.62,1.601,6.019
				c2.206,1.602,5.293,1.113,6.895-1.093l0.039-0.054c0.551-0.759,1.112-1.517,1.671-2.276c-0.098,0.028-0.187,0.048-0.292,0.082
				C233.539,305.21,230.629,301.763,228.874,298.567z"/>
		</g>
		<g>
			<path style="fill:#F97467;" d="M225.341,434.146c0.003-0.179,0.005-0.368,0.005-0.57c0-3.231-13.385-6.154-13.385-6.154
				l-15.692-6.308c0,0-4.282,8.931-4.907,13.385h33.937C225.316,434.382,225.339,434.267,225.341,434.146z"/>
			<path style="fill:#4B74BC;" d="M191.362,434.499c-0.198,1.409-0.033,2.374,0.753,2.461c3.413,0.379,23.337,0.135,30.338,0.036
				c1.451-0.021,2.645-1.097,2.845-2.498H191.362z"/>
		</g>
		<g>
			<path style="fill:#F97467;" d="M325.649,434.146c0.004-0.179,0.005-0.368,0.005-0.57c0-3.231-13.385-6.154-13.385-6.154
				l-15.692-6.308c0,0-4.282,8.931-4.907,13.385h33.937C325.623,434.382,325.646,434.267,325.649,434.146z"/>
			<path style="fill:#4B74BC;" d="M291.67,434.499c-0.198,1.409-0.033,2.374,0.753,2.461c3.413,0.379,23.337,0.135,30.338,0.036
				c1.451-0.021,2.645-1.097,2.845-2.498H291.67z"/>
		</g>
		<path style="fill:#4B74BC;" d="M247.192,311.883c0,0-51.385,105.846-51.077,108.615c0.308,2.769,14.769,6.769,14.769,6.769
			l67.077-82.462l14.462-26.154L247.192,311.883z"/>
		<path style="fill:#4B74BC;" d="M244.115,314.96l0.785,0.677l49.984,49.784c3.935,3.395,1.989,16.036,1.846,21.231
			c-0.495,17.932-0.308,35.385-0.462,35.539c-0.218,0.217,14.615,0.461,14.615,0.461s19.692-56.615,15.692-68
			c-4-11.385-35.077-64.718-44-64.103c-8.923,0.615-38.154,23.18-38.154,23.18"/>
		<path style="fill:#CDDFF7;" d="M312.423,246.55c0,0,13.231,67.692,1.538,78.462s-69.231,7.385-74.461,1.538
			c-5.231-5.846,18.461-35.385,23.077-45.231c4.615-9.846,9.938-20.896,10.462-22.051c6.359-14.051,11.077-19.077,11.077-19.077
			S301.654,247.165,312.423,246.55z"/>
		<path style="fill:#FFDAD7;" d="M292.936,223.473c0,0,0.41,8.718-1.436,14.974c-1.846,6.256,18.051,5.436,18.051,5.436l0.923-15.59
			l-18.667-9.128L292.936,223.473z"/>
		<path style="fill:#FFDAD7;" d="M289.038,214.154c0,0,8,17.846,19.077,20.103c11.077,2.256,11.795-15.399,11.795-15.399
			s2.359-15.487-2.462-17.949c-8.105-4.139-17.641-7.78-17.641-7.78l-11.179,8.308C288.628,201.436,283.808,205.539,289.038,214.154
			z"/>
		<path style="fill:#FFDAD7;" d="M319.295,210.858c0,0,3.59,5.538,3.282,7.077c-0.308,1.538-4.308,1.538-4.308,1.538
			L319.295,210.858z"/>
		<path style="fill:#475188;" d="M285.141,204.704c0,0-1.846,6.974-0.41,9.333c1.436,2.359,4.923,7.692,7.59,8.205
			c2.667,0.513,2.769-1.128,2.769-4c0-2.872-2.256-5.949-0.205-6.769c1.012-0.405,1.549,0.036,1.835,0.586
			c0.186,0.359,0.715,0.322,0.865-0.053c0.784-1.962,2.105-5.667,1.813-7.712C298.987,201.422,285.141,204.704,285.141,204.704z"/>
		<path style="fill:#475188;" d="M308.936,208.499c0,0,6.462,2.667,11.692,0.513c1.128-0.308,1.128-6.154-0.821-6.359
			c-1.949-0.205-9.333,0.82-9.333,0.82L308.936,208.499z"/>
		<path style="fill:#6C99EA;" d="M283.961,205.576c0,0,18.998,9.007,38.098-1.365c0.107-0.308-5.05-23.679-23.277-20.635
			C284.038,186.037,283.961,205.576,283.961,205.576z"/>
		<polygon style="opacity:0.15;fill:#4B74BC;" points="275.5,347.268 281.961,338.653 280.115,350.345 		"/>
		<path style="opacity:0.15;fill:#4B74BC;" d="M323.832,379.268c-10.421-2.712-13.031,31.111-16.025,32.308
			c-3.077,1.231-7.385,4.923-8-4.923c-0.615-9.846-3.077-39.385-3.077-39.385l0.235,2.833c0.894,5.23-0.132,12.812-0.235,16.551
			c-0.495,17.932-0.308,35.385-0.462,35.538c-0.218,0.218,14.615,0.462,14.615,0.462S319.091,399.057,323.832,379.268z"/>
		<path style="fill:#CDDFF7;" d="M312.978,427.082l-17.607-1.716c-1.048-0.102-1.823-1.043-1.72-2.092l0.307-3.156
			c0.102-1.048,1.044-1.823,2.092-1.72l17.607,1.716c1.048,0.102,1.823,1.044,1.72,2.092l-0.307,3.156
			C314.968,426.41,314.027,427.184,312.978,427.082z"/>
		<path style="opacity:0.15;fill:#4B74BC;" d="M221.038,409.114c-8.616,5.231-8.616,0-9.538-5.538
			c-0.507-3.043,2.096-15.342,5.204-28.282c-10.998,23.126-20.723,43.995-20.588,45.205c0.308,2.769,14.769,6.769,14.769,6.769
			l19.274-23.695C226.586,405.745,223.316,407.731,221.038,409.114z"/>
		<g>
			<path style="fill:#CDDFF7;" d="M213.194,428.361c-7.955-1.853-11.776-3.461-18.605-7.767c-1.017-0.641-1.333-1.906-0.732-2.771
				c0.723-1.042,1.084-1.564,1.802-2.609c0.596-0.868,1.799-1.088,2.698-0.522c6.04,3.802,9.421,5.225,16.469,6.86
				c1.049,0.243,1.753,1.254,1.547,2.288c-0.248,1.244-0.373,1.866-0.627,3.109C215.535,427.979,214.378,428.637,213.194,428.361z"
				/>
		</g>
		<path style="fill:#475188;" d="M296.461,211.576c-0.007-0.009,0.005-0.02,0.013-0.012c1.441,1.313,11.786,10.353,22.82,10.166
			c0.308-0.103,0.513,0,0.513,0s0.821,13.026-5.436,13.538s-11.851-6.243-13.846-8.821c-2.462-3.179-6.974-9.538-6.154-9.538
			s3.635,4.098,4.923,3.282C302.021,218.465,297.128,212.509,296.461,211.576z"/>
		<path style="opacity:0.15;fill:#EAB8B5;" d="M314.577,231.165l-19.897-13.231c0,0-4.184-5.626-0.267,5.41
			c3.385,4.748,8.158,9.783,13.702,10.912C317.716,236.213,314.263,234.665,314.577,231.165z"/>
		<path style="opacity:0.15;fill:#D6A2A1;" d="M295.976,213.34c-0.165-0.041-0.319,0.005-0.471,0.068
			c-0.026,0.011-0.053,0.022-0.079,0.033c0.001-0.004,0.001-0.007,0.001-0.021c0-0.007,0.003-0.053,0.002-0.058
			c0.01-0.073,0.024-0.149,0.04-0.221c0.034-0.151,0.095-0.284,0.179-0.413c0.131-0.201-0.158-0.406-0.323-0.249
			c-0.243,0.23-0.447,0.542-0.475,0.881c-0.028,0.342,0.178,0.71,0.561,0.687c0.151-0.009,0.29-0.087,0.409-0.168
			c0.001,0.015,0.002,0.032,0.001,0.043c-0.003,0.04-0.007,0.08-0.013,0.119c-0.027,0.181-0.077,0.359-0.134,0.533
			c-0.061,0.187-0.122,0.355-0.078,0.553c0.018,0.083,0.135,0.136,0.207,0.084c0.159-0.116,0.23-0.266,0.294-0.449
			c0.061-0.173,0.113-0.35,0.147-0.53C296.303,213.921,296.381,213.441,295.976,213.34z"/>
		<path style="opacity:0.15;fill:#475188;" d="M322.049,204.09c-0.124-0.851-1.406-6.144-4.585-11.181
			c-1.043,1.173-2.395,2.596-4.195,4.282c-4.474,4.191-20.614,4.045-28.821,3.677c-0.206,1.187-0.324,2.221-0.392,3.018l0.829,0.613
			c0,0,7.308,2.077,7.692,2.923c0.339,0.746,13.809,1.073,18.325,0.877c1.272-0.266,2.562-0.593,3.865-1.001
			C317.024,206.397,320.079,205.027,322.049,204.09z"/>
		<path style="fill:#8ABAFF;" d="M322.535,202.432c-0.304-0.582-0.573-1.999-0.907-2.607c-0.21-0.383-0.692-0.747-1.102-0.556
			c-1.487,0.692-4.216,1.801-6.332,2.105c-3.934,0.566-7.947,0.803-11.923,0.799c-6.252-0.007-13.233-1.468-17.54-3.417
			c-0.53-0.24-1.103,0.361-1.189,0.913c-0.067,0.425,0.427,1.416,0.266,2.267c-0.154,0.813-0.963,1.485-1.035,1.884
			c-0.132,0.726,0.261,1.437,0.932,1.793c5.805,3.071,10.76,3.854,17.825,3.848c5.336-0.005,16.507-0.878,21.332-4.534
			c0.446-0.338,0.569-0.932,0.287-1.404C322.932,203.158,322.725,202.796,322.535,202.432z"/>
		<g>
			<defs>
				<path id="SVGID_1_" d="M322.535,202.432c-0.304-0.582-0.573-1.999-0.907-2.607c-0.21-0.383-0.692-0.747-1.102-0.556
					c-1.487,0.692-4.216,1.801-6.332,2.105c-3.934,0.566-7.947,0.803-11.923,0.799c-6.252-0.007-13.233-1.468-17.54-3.417
					c-0.53-0.24-1.103,0.361-1.189,0.913c-0.067,0.425,0.427,1.416,0.266,2.267c-0.154,0.813-0.963,1.485-1.035,1.884
					c-0.132,0.726,0.261,1.437,0.932,1.793c5.805,3.071,10.76,3.854,17.825,3.848c5.336-0.005,16.507-0.878,21.332-4.534
					c0.446-0.338,0.569-0.932,0.287-1.404C322.932,203.158,322.725,202.796,322.535,202.432z"/>
			</defs>
			<clipPath id="SVGID_00000155121595078914327830000006665756433208618152_">
				<use xlink:href="#SVGID_1_"  style="overflow:visible;"/>
			</clipPath>
			<path style="clip-path:url(#SVGID_00000155121595078914327830000006665756433208618152_);fill:#6C99EA;" d="M286.444,198.583
				c-0.069-0.243-0.466-0.27-0.52,0c-0.084,0.425-0.089,0.856-0.162,1.282c-0.082,0.472-0.273,0.829-0.516,1.234
				c-0.455,0.758-0.46,1.512-0.316,2.364c0.164,0.971,0.294,1.744-0.275,2.613c-0.518,0.792-1.298,1.558-1.536,2.496
				c-0.042,0.165,0.141,0.318,0.293,0.225c0.421-0.257,0.736-0.664,1.042-1.044c0.324-0.404,0.648-0.816,0.933-1.249
				c0.531-0.807,0.637-1.615,0.492-2.556c-0.071-0.458-0.186-0.913-0.191-1.378c-0.006-0.514,0.212-0.888,0.458-1.32
				C286.608,200.433,286.699,199.484,286.444,198.583z"/>
			<path style="clip-path:url(#SVGID_00000155121595078914327830000006665756433208618152_);fill:#6C99EA;" d="M290.394,201.956
				c0.245-0.754,0.892-1.692,0.603-2.509c-0.074-0.21-0.398-0.3-0.514-0.067c-0.188,0.378-0.275,0.803-0.436,1.194
				c-0.159,0.385-0.349,0.758-0.481,1.154c-0.272,0.811-0.296,1.691-0.247,2.537c0.049,0.853,0.174,1.702,0.192,2.557
				c0.017,0.831-0.158,1.636-0.232,2.46c-0.014,0.16,0.192,0.211,0.293,0.122c1.271-1.124,0.727-3.357,0.62-4.828
				C290.128,203.694,290.118,202.806,290.394,201.956z"/>
			<path style="clip-path:url(#SVGID_00000155121595078914327830000006665756433208618152_);fill:#6C99EA;" d="M295.843,199.915
				c-1.192,1.387-1.792,3.021-1.814,4.853c-0.012,1.022,0.133,2.039,0.115,3.061c-0.009,0.491-0.055,0.98-0.171,1.458
				c-0.055,0.227-0.156,0.449-0.2,0.677c-0.04,0.209,0.001,0.399-0.006,0.608c-0.006,0.189,0.221,0.321,0.382,0.219
				c0.388-0.245,0.59-0.435,0.746-0.883c0.151-0.436,0.219-0.903,0.251-1.362c0.067-0.963-0.074-1.921-0.157-2.878
				c-0.165-1.927,0.187-3.816,1.202-5.484C296.322,199.973,296.011,199.72,295.843,199.915z"/>
			<path style="clip-path:url(#SVGID_00000155121595078914327830000006665756433208618152_);fill:#6C99EA;" d="M300.944,207.511
				c-0.317-0.973-0.345-1.874-0.302-2.89c0.044-1.039,0.084-2.088,0.168-3.123c0.028-0.342-0.505-0.402-0.591-0.08
				c-0.241,0.907-0.445,1.792-0.535,2.727c-0.085,0.888-0.188,1.819-0.045,2.706c0.138,0.858,0.596,1.665,0.531,2.551
				c-0.027,0.363-0.13,0.738-0.284,1.068c-0.168,0.359-0.448,0.655-0.531,1.051c-0.06,0.285,0.17,0.507,0.452,0.452
				c0.757-0.149,1.208-1.127,1.376-1.803C301.412,209.251,301.231,208.391,300.944,207.511z"/>
			<path style="clip-path:url(#SVGID_00000155121595078914327830000006665756433208618152_);fill:#6C99EA;" d="M307.172,207.209
				c-0.311-1.956-1.208-3.791-1.271-5.792c-0.01-0.324-0.506-0.417-0.583-0.079c-0.421,1.851,0.235,3.601,0.648,5.389
				c0.178,0.771,0.284,1.562,0.226,2.354c-0.03,0.409-0.122,0.807-0.255,1.194c-0.123,0.36-0.295,0.686-0.335,1.067
				c-0.021,0.201,0.234,0.403,0.425,0.324c0.735-0.306,1.045-1.171,1.173-1.906C307.349,208.911,307.307,208.059,307.172,207.209z"
				/>
			<path style="clip-path:url(#SVGID_00000155121595078914327830000006665756433208618152_);fill:#6C99EA;" d="M313.68,210.74
				c-0.114-0.319-0.454-0.48-0.596-0.807c-0.196-0.451-0.147-1.005-0.182-1.487c-0.067-0.928-0.204-1.853-0.427-2.757
				c-0.215-0.87-0.511-1.719-0.914-2.519c-0.342-0.68-0.862-1.721-1.645-1.967c-0.119-0.038-0.283,0.068-0.267,0.203
				c0.049,0.422,0.31,0.791,0.508,1.16c0.236,0.438,0.477,0.871,0.67,1.33c0.39,0.933,0.665,1.91,0.843,2.905
				c0.177,0.991,0.153,2.012,0.34,2.996c0.081,0.425,0.269,0.86,0.633,1.117c0.275,0.194,0.707,0.35,0.971,0.074
				C313.674,210.925,313.71,210.825,313.68,210.74z"/>
			<path style="clip-path:url(#SVGID_00000155121595078914327830000006665756433208618152_);fill:#6C99EA;" d="M317.141,204.312
				c-0.387-0.933-0.892-1.808-1.313-2.725c-0.204-0.443-0.384-0.888-0.521-1.356c-0.137-0.468-0.204-0.963-0.436-1.396
				c-0.092-0.171-0.336-0.153-0.432,0c-0.469,0.745-0.183,1.797,0.066,2.574c0.298,0.927,0.755,1.795,1.152,2.682
				c0.391,0.872,0.774,1.78,0.828,2.746c0.033,0.592-0.033,1.176-0.161,1.753c-0.132,0.593-0.306,1.131-0.233,1.745
				c0.037,0.315,0.392,0.514,0.647,0.268c0.803-0.776,0.979-2.086,1.03-3.156C317.82,206.359,317.555,205.311,317.141,204.312z"/>
			<path style="clip-path:url(#SVGID_00000155121595078914327830000006665756433208618152_);fill:#6C99EA;" d="M321.684,205.49
				c-0.095-0.924-0.266-1.835-0.548-2.721c-0.562-1.768-1.47-3.366-2.665-4.782c-0.294-0.348-0.912,0.119-0.638,0.492
				c1.011,1.378,1.777,2.938,2.254,4.579c0.238,0.819,0.425,1.663,0.52,2.511c0.088,0.785,0.022,1.725,0.323,2.462
				c0.083,0.203,0.367,0.283,0.493,0.064C321.848,207.359,321.769,206.305,321.684,205.49z"/>
		</g>
		<path style="fill:#6C99EA;" d="M297.346,205.204c-3.16-0.052-6.28-0.775-9.134-2.134c-0.574-0.273-1.078,0.582-0.501,0.857
			c3.016,1.437,6.293,2.215,9.635,2.27C297.985,206.207,297.985,205.215,297.346,205.204z"/>
		<path style="fill:#6C99EA;" d="M308.516,205.592c-0.077-0.282-0.345-0.389-0.61-0.346c-1.353,0.217-2.729,0.282-4.098,0.214
			c-0.268-0.013-0.496,0.238-0.496,0.496c0,0.28,0.228,0.483,0.496,0.496c1.46,0.073,2.918-0.017,4.362-0.249
			C308.434,206.159,308.581,205.83,308.516,205.592z"/>
		<path style="fill:#6C99EA;" d="M287.269,234.96c0,3.117-5.406,2.93-4.487,4.538c2.154,3.769,9.744,11.769,28.205,11.564
			c6.597-0.073,4.732-3.684,3.754-7.978c-0.413-1.812-2.166-2.957-4.007-2.707c-1.916,0.26-4.641,0.304-7.85-0.571
			C294.594,237.545,287.269,232.004,287.269,234.96z"/>
		<path style="fill:#6C99EA;" d="M313.575,252.913c-2.987,0.189-5.98,0.26-8.961,0.178c-9.237-0.253-19.545-2.204-28.262-6.325
			c-0.901,1.1-1.833,2.367-2.771,3.832c2.789,2.065,5.712,3.846,9.187,5.269c6.217,2.546,12.694,3.876,19.377,4.428
			c4.228,0.349,8.441,0.314,12.643,0.02C314.349,257.5,313.932,254.99,313.575,252.913z"/>
		<path style="fill:#6C99EA;" d="M269.006,261.162c-0.366,1.568-0.831,3.509-1.402,5.656c9.882,4.488,20.783,6.624,32.009,7.407
			c5.708,0.398,11.448,0.545,17.186,0.546c-0.272-2.241-0.557-4.426-0.847-6.526c-4.958-0.047-9.916-0.193-14.854-0.55
			C290.399,266.922,279.245,265.061,269.006,261.162z"/>
		<path style="fill:#6C99EA;" d="M317.5,280.999c-7.892,0.901-16.118,1.372-23.851,1.197c-9.679-0.22-19.779-2.009-29.158-5.459
			c-0.587,1.564-1.223,3.109-1.914,4.582c-0.188,0.401-0.418,0.846-0.666,1.31c9.468,4.282,19.967,6.522,29.642,6.876
			c8.948,0.327,17.772-0.305,26.62-1.115C317.981,285.923,317.753,283.448,317.5,280.999z"/>
		<path style="fill:#6C99EA;" d="M318.678,297.044c-0.911,0.2-1.824,0.388-2.741,0.563c-8.242,1.571-16.672,2.161-25.054,1.805
			c-11.942-0.508-23.679-3.159-34.906-7.221c-1.114,1.692-2.289,3.465-3.486,5.28c11.731,5.41,24.57,8.189,37.577,8.838
			c8.723,0.436,17.508-0.154,26.089-1.791c0.832-0.159,1.713-0.323,2.621-0.494C318.802,301.775,318.766,299.438,318.678,297.044z"
			/>
		<path style="fill:#6C99EA;" d="M318.367,311.987c-9.6,1.672-19.38,2.207-29.114,2.007c-10.029-0.206-20.031-1.045-29.957-2.498
			c-4.668-0.684-9.542-1.237-14.282-2.232c-1.158,1.955-2.216,3.849-3.124,5.635c4.131,1.387,8.453,2.324,12.867,3.135
			c10.766,1.978,21.779,3.34,32.725,3.666c9.802,0.292,19.622-0.202,29.322-1.648C317.545,317.81,318.052,315.074,318.367,311.987z"
			/>
		<g>
			<path style="fill:#FFDAD7;" d="M225.87,313.076c0,0-3.314,8.174-4.86,9.058c-1.547,0.884-9.058,1.105-9.5,2.43
				c-0.442,1.326,0.884,1.767,4.419,2.209c3.535,0.442,8.837,2.209,10.825-1.547c1.988-3.756,5.523-10.383,5.523-10.383
				L225.87,313.076z"/>
			<g>
				<path style="fill:#4B74BC;" d="M225.045,311.021c2.01-5.71,4.098-11.291,6.364-16.915c1.134-2.807,2.313-5.612,3.575-8.428
					c1.275-2.821,2.603-5.637,4.229-8.558c0.835-1.471,1.707-2.952,2.941-4.611l0.473-0.623l0.425-0.527l0.857-1.054
					c0.572-0.724,1.161-1.358,1.751-2.011c2.367-2.597,4.833-4.91,7.353-7.072c2.524-2.146,5.104-4.145,7.741-6.045
					c1.318-0.952,2.655-1.872,4.01-2.779l2.068-1.342l1.067-0.667l0.557-0.338l0.644-0.372l2.996-1.732
					c6.245-3.611,14.234-1.476,17.845,4.769c3.611,6.245,1.476,14.234-4.769,17.845c-1.774,1.026-3.752,1.589-5.668,1.725
					c-0.057,0.004-0.216,0.058-0.355,0.101l-0.438,0.145l-0.913,0.317l-1.864,0.685c-1.246,0.48-2.496,0.978-3.73,1.504
					c-2.47,1.049-4.893,2.182-7.218,3.394c-2.312,1.218-4.519,2.522-6.513,3.897c-0.495,0.344-1.013,0.686-1.447,1.042l-0.689,0.528
					l-0.348,0.264l-0.255,0.21c-0.699,0.57-1.564,1.478-2.404,2.432c-1.702,1.95-3.411,4.196-5.078,6.485
					c-1.668,2.302-3.307,4.68-4.92,7.092c-3.218,4.82-6.369,9.811-9.373,14.778l-0.035,0.057c-1.411,2.333-4.446,3.08-6.778,1.669
					C225.109,315.653,224.283,313.181,225.045,311.021z"/>
			</g>
			<path style="fill:#6C99EA;" d="M226.029,308.269c-0.329,0.916-0.66,1.83-0.984,2.752c-0.762,2.16,0.065,4.632,2.102,5.863
				c2.333,1.411,5.367,0.664,6.778-1.669l0.035-0.057c0.485-0.802,0.98-1.605,1.473-2.408c-0.095,0.036-0.182,0.063-0.284,0.106
				C231.236,314.496,228.046,311.306,226.029,308.269z"/>
		</g>
		<path style="opacity:0.15;fill:#6C99EA;" d="M313.962,325.012c0.969-0.893,1.764-2.184,2.413-3.789
			c-7.856,4.67-22.349,6.63-26.31,6.763c-7.289,0.245-12.899,0.349-17.245,0.35c-5.921,0.001-8.27-7.656-3.374-10.986l2.157-1.467
			c0.582-0.502,0.119-1.447-0.635-1.295c-3.712,0.746-16.839,8.206-23.57,7.244c-10.051-1.436,4.923-22.974,4.923-22.974
			s-0.614,0.506-1.614,1.331c-7.233,11.087-14.309,22.893-11.206,26.361C244.731,332.396,302.269,335.781,313.962,325.012z"/>
		<g>
			<path style="fill:#DD645E;" d="M68.669,243.054c-0.506,4.273,1.632,8.601,5.69,10.672l134.175,68.472
				c4.07,2.077,8.845,1.257,12.009-1.682L68.669,243.054z"/>
			<path style="fill:#F97467;" d="M222.772,317.581l65.205-127.774l-153.046-78.06l-65.188,127.74
				c-0.586,1.149-0.93,2.356-1.073,3.566l151.873,77.462C221.426,319.695,222.192,318.718,222.772,317.581z"/>
			<path style="fill:#FFCECC;" d="M308.022,150.484c2.657-5.207,0.59-11.581-4.616-14.238L169.231,67.774
				c-5.206-2.657-11.581-0.59-14.238,4.616l-20.08,39.348l153.046,78.06L308.022,150.484z"/>
			<g>
				<g style="opacity:0.15;">
					<path style="fill:#14334C;" d="M195.794,282.727l-77.216-39.383c-3.226-1.645-4.519-5.63-2.873-8.856l3.675-7.206
						c1.645-3.225,5.63-4.518,8.856-2.873l77.216,39.383c3.225,1.645,4.518,5.63,2.873,8.856l-3.675,7.206
						C203.004,283.079,199.019,284.372,195.794,282.727z"/>
					
						<text transform="matrix(0.8908 0.4544 -0.4544 0.8908 145.4506 250.1111)" style="fill:#14334C; font-family:'Montserrat-Medium'; font-size:9.2482px;">LOGIN</text>
				</g>
				<g>
					<g>
						<path style="fill:#FFFFFF;" d="M194.43,281.364l-77.216-39.383c-3.225-1.645-4.518-5.63-2.873-8.856l3.675-7.206
							c1.645-3.225,5.63-4.518,8.856-2.873l77.216,39.383c3.226,1.645,4.519,5.63,2.873,8.856l-3.675,7.206
							C201.641,281.716,197.656,283.009,194.43,281.364z"/>
						
							<text transform="matrix(0.8908 0.4544 -0.4544 0.8908 144.0873 248.7478)" style="fill:#F97467; font-family:'Montserrat-Medium'; font-size:9.2482px;">LOGIN</text>
					</g>
				</g>
			</g>
			<g>
				<path style="fill:#F97467;" d="M230.578,141.486c-0.931-2.352-3.609-3.49-5.924-2.472c-2.523,1.109-5.394,1.154-7.912-0.131
					c-2.291-1.169-3.865-3.219-4.571-5.608c-0.72-2.436-3.224-3.878-5.644-3.105c-5.617,1.795-10.671,5.976-13.621,11.974
					c0.001,0.003,0.002,0.005,0.003,0.008l36.384,18.568c0.003-0.001,0.005-0.001,0.008-0.002
					C232.648,154.39,232.893,147.333,230.578,141.486z"/>
				<path style="fill:#F97467;" d="M224.615,123.454c-3.686-1.881-8.148-0.516-9.966,3.047c-0.452,0.886-0.698,1.825-0.756,2.764
					c-0.175,2.838,1.367,5.681,4.136,7.094c2.917,1.488,6.314,0.938,8.508-1.119c0.579-0.543,1.078-1.184,1.458-1.928
					C229.814,129.749,228.301,125.335,224.615,123.454z"/>
			</g>
			<g>
				
					<text transform="matrix(0.8907 0.4546 -0.4546 0.8907 154.9811 207.0104)" style="fill:#FFFFFF; font-family:'Montserrat-Regular'; font-size:8.034px; letter-spacing:1;">password</text>
				<line style="fill:none;stroke:#FFFFFF;stroke-miterlimit:10;" x1="130.338" y1="201.973" x2="219.145" y2="247.268"/>
			</g>
			<g>
				
					<text transform="matrix(0.8907 0.4546 -0.4546 0.8907 170.1667 175.38)" style="fill:#FFFFFF; font-family:'Montserrat-Regular'; font-size:8.034px; letter-spacing:1;">username</text>
				<line style="fill:none;stroke:#FFFFFF;stroke-miterlimit:10;" x1="145.716" y1="171.822" x2="234.524" y2="217.118"/>
			</g>
		</g>
		<line style="fill:none;stroke:#6C99EA;stroke-miterlimit:10;" x1="172.115" y1="437.729" x2="348.731" y2="437.729"/>
	</g>
	<path style="opacity:0.05;fill:#4B74BC;" d="M286.192,112.393c16.087-2.198,38.302,10.267,21.971,29.354
		c-20.725,24.224-59.9,20.824-54.055-5.799C256.901,123.227,274.24,114.026,286.192,112.393z"/>
	<g>
		<path style="fill:#6C99EA;" d="M189.973,362.727c-5.533,2.642-9.373,4.794-9.837,14.382c-0.016,0.334-0.822,0.313-0.887-0.015
			c-1.951-9.882-3.892-12.213-9.667-14.367c-0.869-0.324-1.052-1.967-0.155-2.204c7.462-1.972,8.39-6.302,9.822-15.58
			c0.048-0.31,0.763-0.276,0.887,0.012c1.985,4.627,0.773,13.906,10.09,15.568C191.143,360.687,190.813,362.326,189.973,362.727z"/>
		<path style="fill:#6C99EA;" d="M198.149,347.684c-2.24,1.07-3.795,1.941-3.983,5.823c-0.007,0.135-0.333,0.127-0.359-0.006
			c-0.79-4.001-1.576-4.945-3.914-5.816c-0.352-0.131-0.426-0.796-0.063-0.892c3.021-0.798,3.397-2.551,3.977-6.308
			c0.019-0.126,0.309-0.112,0.359,0.005c0.803,1.873,0.313,5.63,4.085,6.303C198.623,346.858,198.489,347.521,198.149,347.684z"/>
	</g>
	<g>
		<path style="fill:#6C99EA;" d="M377.017,295.433c-3.925,1.887-6.65,3.424-6.979,10.271c-0.012,0.239-0.583,0.224-0.629-0.011
			c-1.384-7.057-2.761-8.722-6.858-10.26c-0.616-0.231-0.746-1.404-0.11-1.574c5.294-1.408,5.952-4.5,6.968-11.127
			c0.034-0.221,0.542-0.197,0.629,0.009c1.408,3.304,0.548,9.931,7.158,11.118C377.847,293.976,377.613,295.146,377.017,295.433z"/>
		<path style="fill:#6C99EA;" d="M393.276,280.746c-3.398,1.634-5.757,2.964-6.042,8.893c-0.01,0.206-0.505,0.194-0.545-0.009
			c-1.198-6.11-2.39-7.552-5.938-8.883c-0.534-0.2-0.646-1.216-0.095-1.362c4.583-1.219,5.153-3.896,6.033-9.633
			c0.029-0.192,0.469-0.171,0.545,0.007c1.219,2.861,0.475,8.598,6.198,9.626C393.994,279.485,393.792,280.499,393.276,280.746z"/>
		<path style="fill:#6C99EA;" d="M359.506,280.262c-2.016,0.969-3.415,1.758-3.584,5.275c-0.006,0.122-0.3,0.115-0.323-0.005
			c-0.711-3.625-1.418-4.479-3.522-5.269c-0.317-0.119-0.383-0.721-0.056-0.808c2.719-0.723,3.057-2.311,3.579-5.714
			c0.017-0.114,0.278-0.101,0.323,0.004c0.723,1.697,0.282,5.1,3.676,5.71C359.932,279.513,359.812,280.115,359.506,280.262z"/>
	</g>
	<g>
		<g>
			
				<line style="fill:none;stroke:#6C99EA;stroke-linecap:round;stroke-miterlimit:10;" x1="364.32" y1="125.935" x2="364.32" y2="131.201"/>
			
				<line style="fill:none;stroke:#6C99EA;stroke-linecap:round;stroke-miterlimit:10;" x1="364.32" y1="136.669" x2="364.32" y2="141.935"/>
		</g>
		<g>
			
				<line style="fill:none;stroke:#6C99EA;stroke-linecap:round;stroke-miterlimit:10;" x1="372.32" y1="133.935" x2="367.055" y2="133.935"/>
			
				<line style="fill:none;stroke:#6C99EA;stroke-linecap:round;stroke-miterlimit:10;" x1="361.586" y1="133.935" x2="356.32" y2="133.935"/>
		</g>
	</g>
	<g>
		<g>
			
				<line style="fill:none;stroke:#6C99EA;stroke-linecap:round;stroke-miterlimit:10;" x1="112.013" y1="308.089" x2="112.013" y2="313.354"/>
			
				<line style="fill:none;stroke:#6C99EA;stroke-linecap:round;stroke-miterlimit:10;" x1="112.013" y1="318.823" x2="112.013" y2="324.089"/>
		</g>
		<g>
			
				<line style="fill:none;stroke:#6C99EA;stroke-linecap:round;stroke-miterlimit:10;" x1="120.013" y1="316.089" x2="114.747" y2="316.089"/>
			
				<line style="fill:none;stroke:#6C99EA;stroke-linecap:round;stroke-miterlimit:10;" x1="109.279" y1="316.089" x2="104.013" y2="316.089"/>
		</g>
	</g>
	<g>
		<g>
			<path style="fill:#6C99EA;" d="M151.345,336.922c-0.258,0-0.519-0.066-0.757-0.206l-8.321-4.876
				c-0.715-0.419-0.955-1.338-0.536-2.053c0.419-0.714,1.338-0.953,2.052-0.535l8.321,4.876c0.715,0.419,0.955,1.338,0.536,2.053
				C152.361,336.656,151.86,336.922,151.345,336.922z"/>
		</g>
		<g>
			<path style="fill:#6C99EA;" d="M149.766,329.413c-0.259,0-0.521-0.066-0.76-0.208l-3.853-2.27
				c-0.713-0.42-0.951-1.34-0.531-2.054c0.421-0.713,1.341-0.953,2.054-0.53l3.853,2.271c0.713,0.42,0.951,1.34,0.531,2.054
				C150.781,329.15,150.28,329.413,149.766,329.413z"/>
		</g>
		<g>
			<path style="fill:#6C99EA;" d="M149.766,329.413c-0.259,0-0.521-0.066-0.76-0.208l-3.853-2.27
				c-0.713-0.42-0.951-1.34-0.531-2.054c0.421-0.713,1.341-0.953,2.054-0.53l3.853,2.271c0.713,0.42,0.951,1.34,0.531,2.054
				C150.781,329.15,150.28,329.413,149.766,329.413z"/>
		</g>
		<g>
			<path style="fill:#6C99EA;" d="M148.318,342.059c-0.257,0-0.518-0.066-0.757-0.206l-8.321-4.875
				c-0.715-0.419-0.955-1.338-0.536-2.052c0.418-0.716,1.336-0.956,2.053-0.536l8.321,4.875c0.715,0.419,0.955,1.338,0.536,2.052
				C149.335,341.793,148.833,342.059,148.318,342.059z"/>
		</g>
		<g>
			<path style="fill:#CDDFF7;" d="M133.805,348.691c-0.431,0-0.868-0.111-1.267-0.346c-1.189-0.701-1.586-2.233-0.885-3.424
				l14.584-24.751c0.7-1.19,2.232-1.586,3.423-0.885c1.189,0.701,1.586,2.233,0.885,3.424l-14.583,24.751
				C135.496,348.251,134.662,348.691,133.805,348.691z"/>
		</g>
		<g>
			<path style="fill:#CDDFF7;" d="M133.805,348.691c-0.431,0-0.868-0.111-1.267-0.346c-1.189-0.701-1.586-2.233-0.885-3.424
				l14.584-24.751c0.7-1.19,2.232-1.586,3.423-0.885c1.189,0.701,1.586,2.233,0.885,3.424l-14.583,24.751
				C135.496,348.251,134.662,348.691,133.805,348.691z"/>
		</g>
		<path style="opacity:0.15;fill:#6C99EA;" d="M149.751,319.352l-17.417,28.843c0.068,0.05,0.13,0.106,0.205,0.15
			c0.398,0.234,0.835,0.346,1.267,0.346c0.856,0,1.69-0.439,2.156-1.23l14.583-24.751
			C151.227,321.552,150.864,320.078,149.751,319.352z"/>
		<g>
			<path style="fill:#CDDFF7;" d="M129.487,363.398c-2.702,0-5.4-1.051-7.422-3.143c-3.955-4.091-3.844-10.638,0.247-14.594
				c4.093-3.955,10.639-3.845,14.594,0.247c1.916,1.981,2.946,4.591,2.899,7.348c-0.047,2.757-1.164,5.33-3.146,7.246
				C134.659,362.436,132.071,363.398,129.487,363.398z M129.485,347.763c-1.333,0-2.666,0.496-3.697,1.493
				c-2.109,2.039-2.167,5.415-0.128,7.524c2.039,2.106,5.414,2.164,7.524,0.126c1.022-0.987,1.598-2.313,1.622-3.735
				c0.024-1.421-0.507-2.766-1.495-3.788C132.269,348.305,130.877,347.763,129.485,347.763z"/>
		</g>
		<path style="fill:#CDDFF7;" d="M143.784,329.252c-0.714-0.418-1.634-0.179-2.052,0.535c-0.419,0.715-0.179,1.634,0.536,2.053
			l3.594,2.106l1.426-2.641L143.784,329.252z"/>
		<path style="fill:#CDDFF7;" d="M144.452,336.555l-3.695-2.165c-0.716-0.42-1.635-0.18-2.053,0.536
			c-0.419,0.714-0.179,1.633,0.536,2.052l3.785,2.218L144.452,336.555z"/>
		<path style="fill:#CDDFF7;" d="M150.084,326.359l-3.408-2.008c-0.713-0.423-1.633-0.183-2.054,0.53
			c-0.42,0.714-0.183,1.634,0.531,2.054l3.422,2.016L150.084,326.359z"/>
	</g>
</g>
</svg>
